<?xml version="1.0" encoding="utf-8"?>
<!-- Generator: Adobe Illustrator 23.0.3, SVG Export Plug-In . SVG Version: 6.00 Build 0)  -->
<svg version="1.1" id="Capa_1" xmlns="http://www.w3.org/2000/svg" xmlns:xlink="http://www.w3.org/1999/xlink" x="0px" y="0px"
	 viewBox="0 0 170.6 35.8" style="enable-background:new 0 0 170.6 35.8;" xml:space="preserve">
<style type="text/css">
	.st0{fill-rule:evenodd;clip-rule:evenodd;fill:#FFFFFF;}
	.st1{fill:#FFFFFF;}
</style>
<path class="st0" d="M0,0v20c0.2,8.4,7.2,15,15.6,14.8c8.1-0.2,14.6-6.7,14.8-14.8V0H0z M26.7,17.2h-9.3V27H13v-9.9H3.7V13H13V3.2
	h4.4V13h9.3V17.2z"/>
<g id="Grupo_518">
	<path id="Trazado_5123" class="st1" d="M47.6,6.4c-2-0.1-2.5,0.6-2.5,2.5V11h2.4v3.1h-2.4V29h-5V14.1h-2.3V11h2.3
		c0-5.2-0.5-7.9,5.7-7.9c0.6,0,1.2,0,1.8,0.1L47.6,6.4z"/>
	<path id="Trazado_5124" class="st1" d="M63.4,25.7c0,1.1,0.1,2.3,0.3,3.4H59l-0.2-2.4h-0.1c-0.9,1.8-2.7,2.8-4.7,2.7
		c-3.5,0-4.8-2.6-4.8-5.7c0-6,4.6-6.2,9.3-6.1v-1.4c0-1.5-0.2-2.6-2-2.6s-1.9,1.3-1.9,2.7h-5c0-2.2,0.7-3.6,1.9-4.4
		c1.4-0.9,3.1-1.3,4.7-1.2c6.4,0,7.2,2.8,7.2,6L63.4,25.7z M54.1,23.4c0,1.3,0.2,2.9,1.8,2.9c3,0,2.5-4,2.5-6
		C56,20.4,54.1,20.2,54.1,23.4L54.1,23.4z"/>
	<path id="Trazado_5125" class="st1" d="M71.3,11v2.3h0.1c0.9-2.1,2.6-2.7,4.7-2.7v4.5c-4.4-0.3-4.5,2.3-4.5,4.1V29h-5V11H71.3z"/>
	<path id="Trazado_5126" class="st1" d="M83,12.8L83,12.8c1.6-2.3,4.8-2.8,7-1.2c0.5,0.4,1,0.8,1.3,1.4c1.1-1.5,2.8-2.4,4.7-2.3
		c2.4,0,4.5,1.4,4.5,3.9V29h-5V16.6c0-1.6-0.3-2.8-1.9-2.8s-1.9,1.2-1.9,2.8V29h-4.9V16.6c0-1.6-0.3-2.8-1.9-2.8S83,15,83,16.6V29
		h-5V11h5V12.8z"/>
	<path id="Trazado_5127" class="st1" d="M117.8,25.7c0,1.1,0.1,2.3,0.2,3.4h-4.7l-0.2-2.4h-0.1c-0.9,1.8-2.7,2.8-4.7,2.8
		c-3.5,0-4.8-2.6-4.8-5.7c0-6,4.6-6.2,9.3-6.1v-1.4c0-1.5-0.2-2.6-2-2.6s-1.9,1.3-1.9,2.7h-5c0-2.2,0.7-3.6,1.8-4.4
		c1.4-0.9,3.1-1.3,4.7-1.2c6.4,0,7.2,2.8,7.2,6L117.8,25.7z M108.5,23.4c0,1.3,0.2,2.9,1.9,2.9c3,0,2.5-4,2.5-6
		C110.4,20.4,108.5,20.2,108.5,23.4z"/>
	<path id="Trazado_5128" class="st1" d="M129.9,17.4c0-2.7-0.7-3.6-2.3-3.6c-2.1,0-2.3,1.9-2.3,5.6c0,5.5,0.5,6.7,2.3,6.7
		c1.6,0,2.3-1.4,2.3-3.8h5c0,4.9-2.6,7-7.3,7c-6.5,0-7.3-4-7.3-9.6c0-4.9,0.7-9.1,7.3-9.1c4.6,0,7.3,2.1,7.3,6.8L129.9,17.4z"/>
	<path id="Trazado_5129" class="st1" d="M142.9,3.3v4h-5v-4H142.9z M142.9,29h-5V11h5V29z"/>
	<path id="Trazado_5130" class="st1" d="M145.1,11h2V8.2l5-2.2V11h2.6v3.1h-2.6v9.6c0,1.4,0,2.3,1.6,2.3c0.3,0,0.6,0,0.9-0.1V29
		c-0.9,0.1-1.7,0.2-2.6,0.2c-4.4,0-4.9-2.9-4.9-4v-11h-2L145.1,11z"/>
	<path id="Trazado_5131" class="st1" d="M160.3,29.2L155.4,11h5l2.6,12.7h0.1l2.7-12.7h4.9l-7,24.8h-5.3L160.3,29.2z"/>
</g>
</svg>
